# xmcd CD database file generated by OrangeCD 6.4
#
# Track frame offsets:
#	150
#	21142
#	41401
#	67982
#	98085
#	118176
#	164793
#	178093
#	223133
#	272609
#	293695
#	315704
#
# Disc length: 4474 seconds
#
# Revision: 0
# Processed by: cddbd v1.5.2PL0 Copyright (c) Steve Scherf et al.
# Submitted via: OrangeCD 6.4
#
DISCID=b011780c
DTITLE=Jimi Hendrix and Friends - Jammin' With Jimi
DYEAR=2008
DGENRE=Blues Rock
TTITLE0=Izabella
TTITLE1=Izabella
TTITLE2=Message To Love
TTITLE3=Jam Back At The House
TTITLE4=Jam In E
TTITLE5=Jam Back At The House
TTITLE6=Machine Gun/If Six Was Nine
TTITLE7=Sundance
TTITLE8=Free Form Jazz
TTITLE9=Lover Man
TTITLE10=Lover Man
TTITLE11=Jam Alt. Mix
EXTD=
EXTT0=
EXTT1=
EXTT2=
EXTT3=
EXTT4=
EXTT5=
EXTT6=
EXTT7=
EXTT8=
EXTT9=
EXTT10=
EXTT11=
PLAYORDER=
